<svg xmlns="http://www.w3.org/2000/svg" viewBox="0 0 24 24" id="holiday-tree-sm"><path fill="#5E3D1D" d="M14 18h-4v4h4z"/><path fill="#2CB56E" d="M12 3 4 19.25s2.44.75 8 .75 8-.75 8-.75z"/><path fill="#00764C" d="M10.44 6.63q1.31 1.21 3.78 2.2.38.15.8.29l1.81 3.7q-1.05.6-2.37 1.12c-1.77.7-3.82 1.25-6.04 1.64a36 36 0 0 0 10.71 1.91l.85 1.73c-4.88-.1-9.44-.9-12.96-2.29a20 20 0 0 1-1.54-.68l1.04-2.11c2.62-.36 5.02-.94 7.03-1.73a16 16 0 0 0 2.4-1.18 27 27 0 0 1-2.65-.88 15 15 0 0 1-3.87-2.12l.86-1.75z"/><path fill="#FCAD19" d="M15.5 4c-2.04.8-2.7 1.47-3.5 3.5-.81-2.03-1.47-2.7-3.5-3.5 2.03-.8 2.7-1.47 3.5-3.5.8 2.03 1.46 2.7 3.5 3.5"/><path fill="gold" d="M12 13.25a1.25 1.25 0 1 1-2.5 0 1.25 1.25 0 0 1 2.5 0"/><path fill="#42CBF3" d="M16.5 15.75a1.25 1.25 0 1 1-2.5 0 1.25 1.25 0 0 1 2.5 0"/><path fill="#FF7DB8" d="M13.25 9.75a1.25 1.25 0 1 1-2.5 0 1.25 1.25 0 0 1 2.5 0"/><path fill="#F2452F" d="M9.5 17.5a1.25 1.25 0 1 1-2.5 0 1.25 1.25 0 0 1 2.5 0"/></svg>